<?xml version="1.0" encoding="UTF-8" standalone="no" ?>
<!DOCTYPE svg PUBLIC "-//W3C//DTD SVG 1.1//EN" "http://www.w3.org/Graphics/SVG/1.1/DTD/svg11.dtd">
<svg xmlns="http://www.w3.org/2000/svg" xmlns:xlink="http://www.w3.org/1999/xlink" version="1.1" width="960" height="960" viewBox="0 0 960 960" xml:space="preserve">
<desc>Created with Fabric.js 5.2.4</desc>
<defs>
</defs>
<g transform="matrix(1 0 0 1 480 480)" id="161815f4-51d7-4e97-a048-bbf83ca55a02"  >
<rect style="stroke: none; stroke-width: 1; stroke-dasharray: none; stroke-linecap: butt; stroke-dashoffset: 0; stroke-linejoin: miter; stroke-miterlimit: 4; fill: rgb(255,255,255); fill-rule: nonzero; opacity: 1;" vector-effect="non-scaling-stroke"  x="-480" y="-480" rx="0" ry="0" width="960" height="960" />
</g>
<g transform="matrix(0 0 0 0 0 0)" id="085b8464-f0ab-4bae-8d2c-47507a1a8ac8"  >
</g>
<g transform="matrix(0 0 0 0 0 0)"  >
<g style=""   >
</g>
</g>
<g transform="matrix(0.89 0 0 0.89 480.19 480.21)"  >
<path style="stroke: rgb(0,0,0); stroke-width: 0; stroke-dasharray: none; stroke-linecap: butt; stroke-dashoffset: 0; stroke-linejoin: miter; stroke-miterlimit: 4; fill: rgb(0,0,0); fill-rule: nonzero; opacity: 1;" vector-effect="non-scaling-stroke"  transform=" translate(-192, -256)" d="M 343.75868 106.66243 L 343.75868 79.430205 L 363.52365 63.999997 L 149.63354 63.999997 L 20.476345 176.2736 L 106.13242 176.2736 C 105.97708 178.39854 105.91328 180.32003999999998 105.91328 182.49922999999998 C 105.91328 203.34394999999998 113.13248 220.58585 127.58530999999999 234.36012 C 142.03815 248.15714 159.83655 255.00796 180.91181999999998 255.00796 C 185.83500999999998 255.00796 190.66240999999997 254.64002 195.35023999999999 253.98377 C 192.44302 260.48458999999997 190.97566999999998 266.50678999999997 190.97566999999998 272.12604999999996 C 190.97566999999998 282.00131 195.47490999999997 292.55645 204.44281999999998 303.76784999999995 C 165.20905 306.43834999999996 136.38169999999997 313.50048999999996 118.00579999999998 324.93107 C 107.47471999999998 331.43014 99.00559299999998 339.63503 92.61545099999998 349.46216999999996 C 86.22488199999998 359.3615 83.03769699999998 369.97741999999994 83.03769699999998 381.42376999999993 C 83.03769699999998 391.0719899999999 85.10007199999998 399.75987999999995 89.25676699999998 407.4860999999999 C 93.41346099999998 415.2123999999999 98.83452399999999 421.5565699999999 105.56898999999999 426.4701799999999 C 112.28723999999998 431.4379899999999 120.03797999999999 435.57105999999993 128.78798999999998 438.93891999999994 C 137.52227999999997 442.2826999999999 146.19441999999998 444.6574999999999 154.84904999999998 446.00149999999996 C 163.47611999999998 447.34371999999996 172.05375999999998 447.99999999999994 180.55483999999998 447.99999999999994 C 194.02371 447.99999999999994 207.50836999999999 446.26571999999993 221.10195 442.81292999999994 C 234.66359999999997 439.32831999999996 247.38216999999997 434.1714999999999 259.27299999999997 427.3202299999999 C 271.13235 420.5153499999999 280.78844999999995 411.2337299999999 288.19489999999996 399.6019299999999 C 295.58513999999997 387.9219499999999 299.28946999999994 374.79693999999995 299.28946999999994 360.2657999999999 C 299.28946999999994 349.2499599999999 297.03982999999994 339.2272799999999 292.53926999999993 330.1250699999999 C 288.07062999999994 321.05304999999987 282.6014199999999 313.5840499999999 276.0865599999999 307.7810399999999 C 269.5857599999999 301.9684099999999 263.0866899999999 296.6256499999999 256.5714399999999 291.8131399999999 C 250.07060999999987 286.96825999999993 244.57122999999987 282.0625599999999 240.10259999999988 277.0002399999999 C 235.61779999999987 271.95366999999993 233.36815999999988 266.9460499999999 233.36815999999988 262.0162899999999 C 233.36815999999988 257.0948399999999 235.10237999999987 252.3444599999999 238.58403999999987 247.7506999999999 C 242.03854999999987 243.1411999999999 246.25779999999986 238.70274999999992 251.19370999999987 234.4449899999999 C 256.13126999999986 230.1955499999999 261.0689399999999 225.4771099999999 265.9903599999999 220.31196999999992 C 270.9118299999999 215.16477999999992 275.1310799999999 208.4845799999999 278.6000699999999 200.30374999999992 C 282.0847399999999 192.12467999999993 283.8032499999999 182.85885999999994 283.8032499999999 172.54695999999993 C 283.8032499999999 159.09425999999993 281.25610999999986 148.0863099999999 276.2558999999999 139.23347999999993 C 275.6622099999999 138.21104999999994 275.03832999999986 137.43009999999992 274.3807899999999 136.21122999999992 L 331.28823999999986 89.53909399999992 L 331.28823999999986 106.65761999999992 C 323.89450999999985 107.58730999999992 324.6640199999999 112.00343999999993 324.6640199999999 117.29281999999992 L 324.6640199999999 245.96000999999993 C 324.6640199999999 251.9183299999999 329.53911999999985 256.7938299999999 335.4978799999999 256.7938299999999 L 339.4865699999999 256.7938299999999 C 345.4449199999999 256.7938299999999 350.32042999999993 251.9187699999999 350.32042999999993 245.9600099999999 L 350.32042999999993 117.29282 C 350.32042999999993 112.01613 351.0978399999999 107.60481 343.75875999999994 106.66243 z M 236.39865 329.14114 C 237.53964 329.89144 240.10255 331.92189 244.11705 335.17952 C 248.16655 338.42271000000005 250.91405 340.87534000000005 252.38272 342.59384 C 253.82123 344.25765 255.96192000000002 346.75885 258.75889 350.14118 C 261.57157 353.51558 263.47729 356.44512000000003 264.47742 358.87543 C 265.47758 361.35213 266.49345 364.33632 267.52378 367.82099 C 268.50945 371.26587 269.00864 374.79694 269.00864 378.38268 C 269.00864 395.43081 262.44526 408.06275 249.35260000000002 416.24183 C 236.22760000000002 424.42266 220.58609 428.51551 202.41493000000003 428.51551 C 193.22784000000001 428.51551 184.21183000000002 427.42262 175.35246000000004 425.32041 C 166.50924000000003 423.20376 158.04054000000002 419.98420999999996 149.96211000000002 415.71855999999997 C 141.88365000000002 411.46085 135.38457000000002 405.51518999999996 130.46139000000002 397.92197 C 125.52375000000002 390.28184999999996 123.05494000000002 381.50732999999997 123.05494000000002 371.67235 C 123.05494000000002 361.35213 125.85186000000002 352.38248 131.47727 344.76646999999997 C 137.07070000000002 337.14083 144.41501 331.37456999999995 153.50935 327.45106999999996 C 162.57175 323.50524999999993 171.75881 320.70874999999995 181.07101 319.05279999999993 C 190.38322 317.35049999999995 199.8678 316.4977999999999 209.50943 316.4977999999999 C 213.97805 316.4977999999999 217.44525000000002 316.7489499999999 219.91408 317.19386999999995 C 220.36864 317.41304999999994 222.94596 319.26411999999993 227.64864 322.75712999999996 C 232.35265 326.2195 235.27429 328.35231999999996 236.39911 329.14113999999995 z M 233.04042 228.56324 C 225.63394000000002 237.42262 215.30588 241.85144 202.08679 241.85144 C 190.22746 241.85144 179.78913 237.08661999999998 170.82125000000002 227.53949 C 161.82141000000001 218.0164 155.39890000000003 207.21146 151.47717000000003 195.10888 C 147.53965000000002 183.00017 145.57132000000004 171.12465 145.57132000000004 159.46088 C 145.57132000000004 145.76668 149.16674000000003 134.10904 156.35222000000005 124.48490000000001 C 163.53949000000006 114.83538000000001 173.85137000000003 110.00013000000001 187.29008000000005 110.00013000000001 C 199.16515000000004 110.00013000000001 209.66431000000006 115.03838000000002 218.72712000000004 125.15690000000001 C 227.82146000000003 135.24172000000002 234.33673000000005 146.56993 238.24402000000003 159.12489 C 242.16578000000004 171.66409 244.11747000000003 183.65467999999998 244.11747000000003 195.10888 C 244.11747000000003 208.55546 240.41491000000002 219.71872 233.04084000000003 228.56324 z" stroke-linecap="round" />
</g>
</svg>